<svg width="555" height="219" viewBox="0 0 555 219" fill="none" xmlns="http://www.w3.org/2000/svg">
<line x1="2.5" y1="122.436" x2="2.5" y2="96.5077" stroke="black" stroke-width="5" stroke-linecap="round"/>
<line x1="12.5" y1="151.762" x2="12.5" y2="67.1804" stroke="black" stroke-width="5" stroke-linecap="round"/>
<line x1="22.5" y1="165.5" x2="22.5" y2="53.4426" stroke="black" stroke-width="5" stroke-linecap="round"/>
<line x1="32.5" y1="134.848" x2="32.5" y2="84.095" stroke="black" stroke-width="5" stroke-linecap="round"/>
<line x1="42.5" y1="173.285" x2="42.5" y2="45.6579" stroke="black" stroke-width="5" stroke-linecap="round"/>
<line x1="52.5" y1="161.898" x2="52.5" y2="57.0445" stroke="black" stroke-width="5" stroke-linecap="round"/>
<line x1="62.5" y1="155.937" x2="62.5" y2="63.0055" stroke="black" stroke-width="5" stroke-linecap="round"/>
<line x1="72.5" y1="142.609" x2="72.5" y2="76.334" stroke="black" stroke-width="5" stroke-linecap="round"/>
<line x1="82.5" y1="216.443" x2="82.5" y2="2.5" stroke="black" stroke-width="5" stroke-linecap="round"/>
<line x1="92.5" y1="126.47" x2="92.5" y2="92.4734" stroke="black" stroke-width="5" stroke-linecap="round"/>
<line x1="102.5" y1="178.694" x2="102.5" y2="40.2485" stroke="black" stroke-width="5" stroke-linecap="round"/>
<line x1="112.5" y1="150.115" x2="112.5" y2="68.8279" stroke="black" stroke-width="5" stroke-linecap="round"/>
<line x1="122.5" y1="210.722" x2="122.5" y2="8.22107" stroke="black" stroke-width="5" stroke-linecap="round"/>
<line x1="132.5" y1="129.709" x2="132.5" y2="89.2337" stroke="black" stroke-width="5" stroke-linecap="round"/>
<line x1="142.5" y1="197.554" x2="142.5" y2="21.3885" stroke="black" stroke-width="5" stroke-linecap="round"/>
<line x1="152.5" y1="214.516" x2="152.5" y2="4.42657" stroke="black" stroke-width="5" stroke-linecap="round"/>
<line x1="162.5" y1="157.351" x2="162.5" y2="61.5916" stroke="black" stroke-width="5" stroke-linecap="round"/>
<line x1="172.5" y1="207.614" x2="172.5" y2="11.3287" stroke="black" stroke-width="5" stroke-linecap="round"/>
<line x1="182.5" y1="141.086" x2="182.5" y2="77.8571" stroke="black" stroke-width="5" stroke-linecap="round"/>
<line x1="192.5" y1="166.422" x2="192.5" y2="52.5211" stroke="black" stroke-width="5" stroke-linecap="round"/>
<line x1="202.5" y1="144.096" x2="202.5" y2="74.847" stroke="black" stroke-width="5" stroke-linecap="round"/>
<line x1="212.5" y1="146.536" x2="212.5" y2="72.4074" stroke="black" stroke-width="5" stroke-linecap="round"/>
<line x1="222.5" y1="144.413" x2="222.5" y2="74.5302" stroke="black" stroke-width="5" stroke-linecap="round"/>
<line x1="232.5" y1="135.756" x2="232.5" y2="83.1871" stroke="black" stroke-width="5" stroke-linecap="round"/>
<line x1="242.5" y1="149.891" x2="242.5" y2="69.0516" stroke="black" stroke-width="5" stroke-linecap="round"/>
<line x1="252.5" y1="196.275" x2="252.5" y2="22.6683" stroke="black" stroke-width="5" stroke-linecap="round"/>
<line x1="262.5" y1="131.013" x2="262.5" y2="87.93" stroke="black" stroke-width="5" stroke-linecap="round"/>
<line x1="272.5" y1="124.045" x2="272.5" y2="94.8976" stroke="black" stroke-width="5" stroke-linecap="round"/>
<line x1="282.5" y1="120.863" x2="282.5" y2="98.0794" stroke="black" stroke-width="5" stroke-linecap="round"/>
<line x1="292.5" y1="183.668" x2="292.5" y2="35.2748" stroke="black" stroke-width="5" stroke-linecap="round"/>
<line x1="302.5" y1="162.54" x2="302.5" y2="56.4027" stroke="black" stroke-width="5" stroke-linecap="round"/>
<line x1="312.5" y1="168.334" x2="312.5" y2="50.6085" stroke="black" stroke-width="5" stroke-linecap="round"/>
<line x1="322.5" y1="215.686" x2="322.5" y2="3.25671" stroke="black" stroke-width="5" stroke-linecap="round"/>
<line x1="332.5" y1="173.908" x2="332.5" y2="45.0345" stroke="black" stroke-width="5" stroke-linecap="round"/>
<line x1="342.5" y1="124.786" x2="342.5" y2="94.1569" stroke="black" stroke-width="5" stroke-linecap="round"/>
<line x1="352.5" y1="154.685" x2="352.5" y2="64.2581" stroke="black" stroke-width="5" stroke-linecap="round"/>
<line x1="362.5" y1="160.42" x2="362.5" y2="58.5226" stroke="black" stroke-width="5" stroke-linecap="round"/>
<line x1="372.5" y1="145.728" x2="372.5" y2="73.2145" stroke="black" stroke-width="5" stroke-linecap="round"/>
<line x1="382.5" y1="186.8" x2="382.5" y2="32.143" stroke="black" stroke-width="5" stroke-linecap="round"/>
<line x1="392.5" y1="128.326" x2="392.5" y2="90.6169" stroke="black" stroke-width="5" stroke-linecap="round"/>
<line x1="402.5" y1="138.131" x2="402.5" y2="80.8112" stroke="black" stroke-width="5" stroke-linecap="round"/>
<line x1="412.5" y1="164.897" x2="412.5" y2="54.0459" stroke="black" stroke-width="5" stroke-linecap="round"/>
<line x1="422.5" y1="169.465" x2="422.5" y2="49.4784" stroke="black" stroke-width="5" stroke-linecap="round"/>
<line x1="432.5" y1="173.643" x2="432.5" y2="45.2997" stroke="black" stroke-width="5" stroke-linecap="round"/>
<line x1="442.5" y1="131.858" x2="442.5" y2="87.0846" stroke="black" stroke-width="5" stroke-linecap="round"/>
<line x1="452.5" y1="135.475" x2="452.5" y2="83.4683" stroke="black" stroke-width="5" stroke-linecap="round"/>
<line x1="462.5" y1="147.443" x2="462.5" y2="71.4997" stroke="black" stroke-width="5" stroke-linecap="round"/>
<line x1="472.5" y1="151.654" x2="472.5" y2="67.2894" stroke="black" stroke-width="5" stroke-linecap="round"/>
<line x1="482.5" y1="211.918" x2="482.5" y2="7.02502" stroke="black" stroke-width="5" stroke-linecap="round"/>
<line x1="492.5" y1="119.191" x2="492.5" y2="99.7517" stroke="black" stroke-width="5" stroke-linecap="round"/>
<line x1="502.5" y1="196.121" x2="502.5" y2="22.8217" stroke="black" stroke-width="5" stroke-linecap="round"/>
<line x1="512.5" y1="128.443" x2="512.5" y2="90.5003" stroke="black" stroke-width="5" stroke-linecap="round"/>
<line x1="522.5" y1="205.74" x2="522.5" y2="13.203" stroke="black" stroke-width="5" stroke-linecap="round"/>
<line x1="532.5" y1="180.57" x2="532.5" y2="38.3724" stroke="black" stroke-width="5" stroke-linecap="round"/>
<line x1="542.5" y1="140.62" x2="542.5" y2="78.3235" stroke="black" stroke-width="5" stroke-linecap="round"/>
<line x1="552.5" y1="143.453" x2="552.5" y2="75.4899" stroke="black" stroke-width="5" stroke-linecap="round"/>
</svg>
